# xmcd
#
# Track frame offsets: 
#        150
#        782
#        13868
#        26646
#        27243
#        42375
#        55601
#        56230
#        79283
#        97825
#        98787
#        117799
#        136639
#        137257
#        149190
#        161791
#        162315
#        173108
#        186232
#        186638
#        199248
#        214813
#        215326
#        227638
#        242936
#        243507
#
# Disc length: 3422 seconds
#
# Revision: 2
# Processed by: cddbd v1.5.2PL0 Copyright (c) Steve Scherf et al.
# Submitted via: ExactAudioCopy v0.95b3
#
DISCID=6f0d5c1a
DTITLE=Various Artist - The Ultimate Motown Christmas Collection [CD2]
DYEAR=2009
DGENRE=R&B
TTITLE0=Smokey Robinson - Season's Greetings
TTITLE1=Smokey Robinson and The Temptations - The Christmas Song
TTITLE2=The Supremes - Children's Christmas Song
TTITLE3=David Ruffin - Season's Greetings
TTITLE4=The Temptations - The Little Drummer Boy
TTITLE5=The Jackson 5 - I Saw Mommy Kissing Santa Claus
TTITLE6=Four Tops - Season's Greetings
TTITLE7=Four Tops with Aretha Franklin - Christmas Here With You
TTITLE8=Diana Ross - This Christmas
TTITLE9=Willie Hutch - Season's Greetings
TTITLE10=The Boys - Christmas Cheer
TTITLE11=Boyz II Men Featuring Brian McKnight - Let It Snow
TTITLE12=The Spinners - Season's Greetings
TTITLE13=Smokey Robinson and The Miracles - Christmas Everyday
TTITLE14=Stevie Wonder - One Little Christmas Tree
TTITLE15=Martha and The Vandellas - Season's Greetings
TTITLE16=Smokey Robinson and The Miracles - Noel
TTITLE17=Marvin Gaye - Purple Snowflakes
TTITLE18=The Elgins - Season's Greetings
TTITLE19=Kim Weston - Wish You A Merry Christmas
TTITLE20=Smokey Robinson and The Miracles - It's Christmas Time
TTITLE21=Shorty Long - Season's Greetings From Shorty Long
TTITLE22=Twistin' Kings - Xmas Twist
TTITLE23=Marvin Gaye - I Want To Come Home For Christmas
TTITLE24=Smokey Robinson and The Miracles - Season's Greetings
TTITLE25=Smokey Robinson and The Miracles - A Child Is Waiting (Stripped
TTITLE25=Version)
EXTD=
EXTT0=
EXTT1=
EXTT2=
EXTT3=
EXTT4=
EXTT5=
EXTT6=
EXTT7=
EXTT8=
EXTT9=
EXTT10=
EXTT11=
EXTT12=
EXTT13=
EXTT14=
EXTT15=
EXTT16=
EXTT17=
EXTT18=
EXTT19=
EXTT20=
EXTT21=
EXTT22=
EXTT23=
EXTT24=
EXTT25=
PLAYORDER=
